<?xml version="1.0" encoding="UTF-8" standalone="no"?>
<!DOCTYPE svg PUBLIC "-//W3C//DTD SVG 1.1//EN" "http://www.w3.org/Graphics/SVG/1.1/DTD/svg11.dtd">
<svg xmlns="http://www.w3.org/2000/svg" version="1.1" viewBox="0.00 0.00 200.00 200.00">
<g stroke-width="2.00" fill="none" stroke-linecap="butt">
<path stroke="#cfe4ff" vector-effect="non-scaling-stroke" d="
  M 105.57 0.00
  L 95.31 36.03
  Q 94.90 37.47 95.95 36.41
  L 102.83 29.53
  A 3.38 3.38 0.0 0 1 107.81 29.75
  L 124.80 50.00"
/>
<path stroke="#9bbceb" vector-effect="non-scaling-stroke" d="
  M 124.80 50.00
  Q 118.12 52.41 114.31 51.44
  C 109.66 50.26 105.49 48.88 100.65 48.40"
/>
<path stroke="#b4d5ff" vector-effect="non-scaling-stroke" d="
  M 100.65 48.40
  Q 100.10 46.35 98.40 43.83
  Q 94.93 38.70 87.01 26.21
  Q 86.86 25.98 86.87 25.75
  Q 86.87 25.49 86.95 25.26"
/>
<path stroke="#a7c2eb" vector-effect="non-scaling-stroke" d="
  M 149.02 51.63
  Q 145.77 50.82 142.34 49.89
  Q 138.03 48.72 135.58 48.56
  Q 129.89 48.20 124.80 50.00"
/>
<path stroke="#8cb3eb" vector-effect="non-scaling-stroke" d="
  M 100.65 48.40
  Q 94.88 48.53 93.05 49.29
  Q 86.37 52.05 81.25 51.55
  Q 79.35 51.36 72.50 49.27
  Q 65.48 47.13 55.54 50.24"
/>
<path stroke="#8cb3eb" vector-effect="non-scaling-stroke" d="
  M 150.58 58.33
  Q 147.19 58.18 145.50 57.73
  Q 142.72 56.99 138.74 55.52
  C 136.00 54.52 130.77 54.66 128.07 55.76
  C 122.14 58.17 116.53 59.16 110.04 57.30"
/>
<path stroke="#7fa7e0" vector-effect="non-scaling-stroke" d="
  M 110.04 57.30
  C 103.96 54.99 99.18 53.61 93.18 56.13
  Q 87.35 58.58 81.76 58.23
  Q 81.08 58.19 81.12 58.87
  L 85.08 118.26"
/>
<path stroke="#98c0f5" vector-effect="non-scaling-stroke" d="
  M 110.04 57.30
  Q 108.69 74.56 108.20 79.00
  Q 106.25 96.60 103.92 118.99
  Q 101.74 139.99 99.72 161.89
  C 98.93 170.53 97.65 179.70 97.10 188.27
  Q 96.81 192.93 95.43 196.76"
/>
</g>
<path fill="#c3ddff" d="
  M 104.76 0.00
  Q 105.17 0.00 105.57 0.00
  L 95.31 36.03
  Q 94.90 37.47 95.95 36.41
  L 102.83 29.53
  A 3.38 3.38 0.0 0 1 107.81 29.75
  L 124.80 50.00
  Q 118.12 52.41 114.31 51.44
  C 109.66 50.26 105.49 48.88 100.65 48.40
  Q 100.10 46.35 98.40 43.83
  Q 94.93 38.70 87.01 26.21
  Q 86.86 25.98 86.87 25.75
  Q 86.87 25.49 86.95 25.26
  Q 88.45 23.27 92.07 17.55
  Q 95.37 12.33 104.76 0.00
  Z"
/>
<path fill="#dbeaff" d="
  M 105.57 0.00
  L 108.68 0.00
  L 149.02 51.63
  Q 145.77 50.82 142.34 49.89
  Q 138.03 48.72 135.58 48.56
  Q 129.89 48.20 124.80 50.00
  L 107.81 29.75
  A 3.38 3.38 0.0 0 0 102.83 29.53
  L 95.95 36.41
  Q 94.90 37.47 95.31 36.03
  L 105.57 0.00
  Z"
/>
<path fill="#a4ccff" d="
  M 86.95 25.26
  Q 86.87 25.49 86.87 25.75
  Q 86.86 25.98 87.01 26.21
  Q 94.93 38.70 98.40 43.83
  Q 100.10 46.35 100.65 48.40
  Q 94.88 48.53 93.05 49.29
  Q 86.37 52.05 81.25 51.55
  Q 79.35 51.36 72.50 49.27
  Q 65.48 47.13 55.54 50.24
  Q 73.32 27.70 79.07 21.06
  Q 80.38 19.54 83.02 20.56
  Q 83.49 20.74 83.74 21.18
  Q 84.88 23.26 86.36 25.18
  Q 86.62 25.53 86.95 25.26
  Z"
/>
<path fill="#739ad6" d="
  M 55.54 50.24
  Q 65.48 47.13 72.50 49.27
  Q 79.35 51.36 81.25 51.55
  Q 86.37 52.05 93.05 49.29
  Q 94.88 48.53 100.65 48.40
  C 105.49 48.88 109.66 50.26 114.31 51.44
  Q 118.12 52.41 124.80 50.00
  Q 129.89 48.20 135.58 48.56
  Q 138.03 48.72 142.34 49.89
  Q 145.77 50.82 149.02 51.63
  Q 152.80 51.60 153.76 51.37
  C 158.22 50.33 163.56 48.02 168.31 48.64
  C 170.92 48.98 171.67 52.26 169.94 53.92
  C 168.44 55.36 164.99 54.57 162.85 55.46
  Q 156.80 57.98 150.58 58.33
  Q 147.19 58.18 145.50 57.73
  Q 142.72 56.99 138.74 55.52
  C 136.00 54.52 130.77 54.66 128.07 55.76
  C 122.14 58.17 116.53 59.16 110.04 57.30
  C 103.96 54.99 99.18 53.61 93.18 56.13
  Q 87.35 58.58 81.76 58.23
  Q 81.08 58.19 81.12 58.87
  L 85.08 118.26
  L 53.75 58.79
  A 1.47 1.46 -17.2 0 0 52.26 58.01
  Q 49.53 58.36 46.59 58.11
  C 42.30 57.73 38.72 55.39 34.57 54.87
  C 33.12 54.69 31.36 55.06 30.20 54.04
  C 28.44 52.49 28.86 49.19 31.48 48.71
  C 36.05 47.86 41.89 50.33 46.36 51.36
  Q 51.18 52.47 55.54 50.24
  Z"
/>
<path fill="#8bb3ea" d="
  M 110.04 57.30
  Q 108.69 74.56 108.20 79.00
  Q 106.25 96.60 103.92 118.99
  Q 101.74 139.99 99.72 161.89
  C 98.93 170.53 97.65 179.70 97.10 188.27
  Q 96.81 192.93 95.43 196.76
  Q 90.72 187.45 90.22 181.26
  Q 87.77 150.76 85.57 120.26
  C 85.52 119.58 85.13 118.94 85.08 118.26
  L 81.12 58.87
  Q 81.08 58.19 81.76 58.23
  Q 87.35 58.58 93.18 56.13
  C 99.18 53.61 103.96 54.99 110.04 57.30
  Z"
/>
<path fill="#a4ccff" d="
  M 150.58 58.33
  C 147.13 70.54 143.58 82.07 139.99 94.79
  C 137.85 102.38 135.52 109.84 133.39 117.46
  Q 130.29 128.55 125.92 143.04
  Q 125.10 145.76 124.38 148.94
  C 123.77 151.64 120.88 152.86 118.66 150.90
  C 116.64 149.11 114.69 147.38 112.62 145.53
  Q 112.12 145.08 112.00 145.74
  Q 109.62 158.72 107.72 168.75
  Q 104.26 187.01 102.30 197.25
  Q 101.94 199.16 99.86 200.00
  L 97.76 200.00
  Q 95.22 198.90 95.43 196.76
  Q 96.81 192.93 97.10 188.27
  C 97.65 179.70 98.93 170.53 99.72 161.89
  Q 101.74 139.99 103.92 118.99
  Q 106.25 96.60 108.20 79.00
  Q 108.69 74.56 110.04 57.30
  C 116.53 59.16 122.14 58.17 128.07 55.76
  C 130.77 54.66 136.00 54.52 138.74 55.52
  Q 142.72 56.99 145.50 57.73
  Q 147.19 58.18 150.58 58.33
  Z"
/>
</svg>
